<svg
            xmlns="http://www.w3.org/2000/svg"
            
            viewBox="0 0 52 45"
            
          >
            <path
              d="M14.6246 3.22217C16.075 3.22217 17.4165 3.33566 18.6422 3.6716C19.8702 3.89631 20.8757 4.34574 21.7678 4.90639C22.6621 5.46931 23.3317 6.25468 23.7766 7.26476C24.2237 8.27483 24.4485 9.5119 24.4485 10.8579C24.4485 12.4309 24.1125 13.7769 23.3317 14.787C22.6621 15.7994 21.5453 16.6959 20.2061 17.3701C22.1037 17.933 23.5541 18.9431 24.4485 20.2914C25.3405 21.6374 25.8989 23.3216 25.8989 25.2305C25.8989 26.8035 25.5629 28.1496 25.0046 29.2731C24.4485 30.3967 23.5541 31.4068 22.5486 32.0809C21.4563 32.8035 20.2489 33.3346 18.9781 33.6517C17.6389 33.9899 16.2997 34.2146 14.9605 34.2146H0V3.22217H14.6246ZM13.7303 15.7971C14.9583 15.7971 15.9638 15.4612 16.7446 14.9005C17.5254 14.3398 17.8614 13.3275 17.8614 12.0927C17.8614 11.4186 17.7479 10.7467 17.5254 10.2973C17.303 9.84783 16.9671 9.50963 16.5222 9.17369C16.075 8.94898 15.6279 8.72426 15.0695 8.61304C14.5111 8.49955 13.955 8.49955 13.2831 8.49955H6.80952V15.7994H13.7325L13.7303 15.7971ZM14.0662 29.0484C14.7358 29.0484 15.4054 28.9349 15.9638 28.8237C16.5222 28.7102 17.0806 28.4878 17.5254 28.1496C17.9803 27.821 18.3608 27.4002 18.6422 26.9148C18.8646 26.3541 19.0894 25.68 19.0894 24.8946C19.0894 23.3216 18.6422 22.198 17.7502 21.4127C16.8558 20.7385 15.6279 20.4026 14.1774 20.4026H6.80952V29.0507L14.0662 29.0484ZM35.6115 28.9349C36.5036 29.8338 37.8428 30.2832 39.6292 30.2832C40.8571 30.2832 41.9739 29.9473 42.8659 29.3866C43.7603 28.7125 44.3186 28.0383 44.5411 27.3665H50.0114C49.1171 30.0585 47.7779 31.9674 45.9938 33.2045C44.2052 34.3258 42.0851 34.9999 39.5179 34.9999C37.8754 35.005 36.2467 34.7001 34.7172 34.1011C33.341 33.585 32.1136 32.7366 31.1445 31.6315C30.1078 30.5978 29.3416 29.3248 28.9132 27.9248C28.3549 26.4653 28.1301 24.8946 28.1301 23.0969C28.1301 21.4127 28.3549 19.8419 28.9132 18.3802C29.451 16.9737 30.2462 15.6797 31.258 14.5646C32.2774 13.5178 33.4899 12.6784 34.8284 12.0927C36.319 11.4936 37.9114 11.1884 39.5179 11.1939C41.4155 11.1939 43.0907 11.5321 44.5411 12.3174C45.9938 13.1028 47.1083 14.0016 48.0003 15.3499C48.8946 16.5847 49.5665 18.0442 50.0114 19.6172C50.2339 21.188 50.3451 22.761 50.2339 24.5564H34.0476C34.0476 26.3541 34.7172 28.0383 35.6115 28.9372V28.9349ZM42.6435 17.1454C41.8627 16.36 40.6347 15.9106 39.182 15.9106C38.1787 15.9106 37.3956 16.1376 36.726 16.4735C36.0564 16.8094 35.6115 17.2589 35.1644 17.7083C34.7528 18.1422 34.4801 18.6891 34.3813 19.279C34.2701 19.8419 34.1588 20.2914 34.1588 20.7385H44.2052C43.9827 19.0543 43.4243 17.933 42.6435 17.1454ZM32.8196 5.35582H45.3219V8.38833H32.8219V5.35582H32.8196Z"
             
            />
          </svg>