
          <svg
            xmlns="http://www.w3.org/2000/svg"
            
            viewBox="0 0 109 43"
            
          >
            <path
              d="M104.239 32C104.827 32.0006 105.409 31.8864 105.953 31.664C106.496 31.4415 106.99 31.1152 107.406 30.7036C107.823 30.292 108.153 29.8032 108.378 29.2651C108.604 28.727 108.72 28.1501 108.721 27.5674C108.722 26.9848 108.606 26.4077 108.382 25.8691C108.157 25.3306 107.828 24.8411 107.413 24.4287C106.997 24.0163 106.504 23.6889 105.961 23.4654C105.418 23.2419 104.836 23.1266 104.248 23.126C103.06 23.1248 101.921 23.5911 101.081 24.4224C100.24 25.2537 99.7671 26.3818 99.7659 27.5585C99.7648 28.7353 100.235 29.8643 101.074 30.6973C101.913 31.5302 103.051 31.9988 104.239 32ZM99.7569 15.4783H95.932C93.475 15.4783 92.1519 17.3066 92.1519 20.3478V31.3445H84.907V15.4783H81.8289C79.3674 15.4783 78.049 17.3066 78.049 20.3478V31.3445H70.8039V9.60981H78.049V12.9097C79.2369 10.3501 80.866 9.60981 83.2824 9.60981H92.1564V12.9097C93.3445 10.3501 94.9689 9.60981 97.3855 9.60981H99.7569V15.4783ZM69.2199 22.1717H54.1044C54.5004 24.6065 56.0394 25.9978 58.6315 25.9978C60.5664 25.9978 61.9254 25.2174 62.3664 23.8261L68.7789 25.6098C67.1994 29.3913 63.2889 31.6923 58.6315 31.6923C50.7654 31.6923 47.1609 25.6499 47.1609 20.4771C47.1609 15.3935 50.3244 9.30658 58.186 9.30658C66.5379 9.30658 69.3055 15.4783 69.3055 20.0446C69.3055 21.0435 69.2604 21.6945 69.2154 22.1717H69.2199ZM62.1909 17.9576C62.0109 16.0847 60.6519 14.3456 58.1904 14.3456C55.9044 14.3456 54.5454 15.3489 54.1044 17.9576H62.1909ZM34.5069 31.34H40.8789L48.8304 9.60535H41.5404L37.6704 22.2564L33.7194 9.60535H26.4609L34.5069 31.34ZM4.80695 31.34H12.0159V15.4738H18.8739V31.34H26.0334V9.60535H12.0159V8.25864C12.0159 6.77815 13.0734 5.86845 14.7429 5.86845H18.8739V0H13.5459C8.31695 0 4.80245 3.17503 4.80245 7.82609V9.60981H0.720947V15.4783H4.80695V31.3445V31.34Z"
              
            />
          </svg>