<svg
            xmlns="http://www.w3.org/2000/svg"
          
            viewBox="0 0 42 51"
            
          >
            <path
              d="M11.8436 8.5571C11.8431 9.50003 11.4889 10.4041 10.8589 11.0706C10.2289 11.737 9.37462 12.1111 8.48407 12.1106C7.59352 12.1102 6.73962 11.7351 6.11022 11.0681C5.48083 10.401 5.12748 9.49647 5.12793 8.55354C5.12838 7.61061 5.48257 6.70649 6.1126 6.04007C6.74263 5.37365 7.59688 4.99953 8.48743 5C9.37797 5.00047 10.2319 5.3755 10.8613 6.04259C11.4907 6.70967 11.844 7.61417 11.8436 8.5571ZM11.9443 14.7434H5.22866V36.9996H11.9443V14.7434ZM22.555 14.7434H15.8729V36.9996H22.4878V25.3204C22.4878 18.8142 30.4962 18.2098 30.4962 25.3204V36.9996H37.1279V22.9028C37.1279 11.9346 25.2748 12.3435 22.4878 17.7298L22.555 14.7434Z"
              
            />
          </svg>