<svg viewBox="0 0 98 19"  xmlns="http://www.w3.org/2000/svg">
<path d="M69.6264 9.2003C69.814 9.38806 70.0016 9.6697 70.1893 9.85745C71.2213 11.1718 71.3151 12.7677 70.3769 14.1759C69.5325 15.3963 68.4067 16.2412 66.9994 16.5228C66.8118 16.5228 66.6241 16.6167 66.4365 16.6167C64.2786 16.6167 62.2146 16.6167 60.0567 16.6167C59.9629 16.6167 59.8691 16.6167 59.7753 16.6167C60.5258 11.8289 61.2764 7.0411 62.0269 2.2533C62.1208 2.2533 62.2146 2.2533 62.3084 2.2533C63.9972 2.2533 65.7797 2.2533 67.4685 2.2533C68.4067 2.2533 69.1573 2.62881 69.814 3.19208C70.4707 3.75535 70.9398 4.31862 71.1275 5.16353C71.3151 6.10231 71.1275 6.94722 70.7522 7.79213C70.4707 8.26152 70.1893 8.73091 69.7202 9.2003C69.7202 9.2003 69.7202 9.2003 69.6264 9.2003ZM63.3404 13.8003C63.4342 13.8003 63.4342 13.8003 63.5281 13.8003C64.3724 13.8003 65.2168 13.8003 66.155 13.8003C66.5303 13.8003 66.8118 13.7065 67.187 13.5187C67.6561 13.2371 68.0314 12.8616 68.0314 12.2983C68.0314 11.735 67.75 11.3595 67.2809 11.1718C66.9994 10.984 66.6241 10.984 66.2488 10.984C65.4983 10.984 64.8415 10.984 64.091 10.984C63.9972 10.984 63.9972 10.984 63.9033 10.984C63.6219 11.9228 63.4342 12.8616 63.3404 13.8003ZM64.6539 5.35129C64.4663 6.19619 64.3724 7.13498 64.1848 7.97988C64.2786 7.97988 64.2786 7.97988 64.2786 7.97988C64.9354 7.97988 65.6859 7.97988 66.3427 7.97988C66.9056 7.97988 67.3747 7.69825 67.6561 7.22886C68.1252 6.38395 67.6561 5.44516 66.7179 5.44516C66.2488 5.44516 65.6859 5.44516 65.2168 5.44516C65.123 5.35129 64.9354 5.35129 64.6539 5.35129Z" />
<path d="M71.8778 10.3269C71.9716 7.97994 72.6284 6.00849 74.0357 4.31868C75.0677 3.19213 76.2873 2.44111 77.7885 2.15947C79.4772 1.87784 80.9783 2.34723 82.198 3.56765C83.3238 4.60031 83.8868 5.91461 84.1682 7.41667C84.6373 10.0453 83.9806 12.3922 82.2918 14.4576C81.3536 15.5841 80.2278 16.429 78.8205 16.7106C76.8503 17.18 75.0677 16.7106 73.6604 15.2086C72.7222 14.2698 72.1593 13.0494 71.9716 11.7351C71.8778 11.0779 71.8778 10.6085 71.8778 10.3269ZM74.8801 10.3269C74.8801 10.5147 74.88 10.7963 74.9739 10.984C75.0677 11.7351 75.2553 12.4861 75.8183 13.0494C76.475 13.8943 77.507 14.1759 78.4452 13.7065C79.1958 13.4249 79.7587 12.8616 80.2278 12.2045C81.166 10.8902 81.5413 9.38811 81.3536 7.79218C81.2598 7.04115 81.0722 6.384 80.6031 5.82073C79.8525 5.16358 79.1958 4.78807 78.2576 4.97583C77.4132 5.16358 76.8503 5.63297 76.3812 6.19625C75.3491 7.41667 74.9739 8.73096 74.8801 10.3269Z" />
<path d="M88.0153 16.4288C86.9833 16.4288 86.0451 16.4288 85.013 16.4288C85.013 16.241 85.1069 16.0533 85.1069 15.8655C85.3883 13.8002 85.7636 11.8287 86.0451 9.76341C86.0451 9.66953 86.0451 9.57565 85.9512 9.48177C85.2945 7.97972 84.544 6.38378 83.8872 4.88173C83.5119 3.94294 83.0428 3.09804 82.6675 2.15925C82.6675 2.06538 82.6676 2.06538 82.5737 1.9715C83.6996 1.9715 84.8254 1.9715 85.9512 1.9715C86.5142 3.47355 87.1709 5.06949 87.8276 6.66542C88.8597 5.06949 89.7979 3.56743 90.7361 1.9715C91.8619 1.9715 93.0816 1.9715 94.2074 1.9715C94.1136 2.06538 94.1136 2.15925 94.0198 2.25313C92.331 4.88173 90.6422 7.6042 88.9535 10.2328C88.8597 10.3267 88.8597 10.4206 88.8597 10.6083C88.672 11.9226 88.4844 13.2369 88.2967 14.4573C88.2029 15.0206 88.1091 15.6778 88.0153 16.241C88.1091 16.3349 88.1091 16.4288 88.0153 16.4288Z" />
<path d="M51.8009 5.2573C51.7071 6.1022 51.5195 6.94711 51.4257 7.79202H55.929C55.7414 8.82468 55.5537 9.85734 55.4599 10.9839H50.9566C50.8627 11.8288 50.6751 12.6737 50.5813 13.5186H55.7414C55.5537 14.5513 55.3661 15.5839 55.2723 16.6166H44.0139C43.5448 13.7064 43.1695 10.7023 42.7004 7.79202H42.6066C41.4807 10.7023 40.3549 13.6125 39.3229 16.5227H37.3527C36.6959 13.8941 35.9454 11.2655 35.2886 8.54305C34.4442 11.1716 33.5999 13.8002 32.7555 16.5227H29.378H18.0258C17.5567 13.6125 17.1814 10.6084 16.7123 7.69814H16.6185C15.4926 10.6084 14.3668 13.5186 13.3348 16.4288H11.3645C10.7078 13.8002 9.95724 11.1716 9.3005 8.44917C8.45612 11.0778 7.61174 13.7064 6.76736 16.4288H3.29602C3.29602 16.5227 7.8932 3.75524 8.54994 2.06543H11.5522C12.0213 4.69403 12.5842 7.22875 13.0533 9.85734C14.1791 7.22875 15.305 4.69403 16.4308 2.06543H19.996C20.3713 6.75935 20.7465 11.5472 21.028 16.2411C21.7785 11.5472 22.5291 6.85323 23.2797 2.06543H31.5358C31.3482 3.09809 31.2544 4.13076 31.0667 5.16342H25.9066C25.8128 6.00833 25.6252 6.85323 25.5313 7.69814H30.0347C29.8471 8.7308 29.6594 9.76347 29.5656 10.89H25.0622C24.9684 11.7349 24.7808 12.5798 24.687 13.4247H29.8471C29.6594 14.3635 29.5656 15.2084 29.378 16.0533C30.2223 13.7064 33.8813 3.56749 34.4442 2.06543H37.4465C37.9156 4.69403 38.3847 7.32262 38.8538 9.85734C39.9796 7.22875 41.1055 4.69403 42.2313 2.06543H45.7965C46.1717 6.75935 46.547 11.5472 46.8285 16.2411C47.579 11.5472 48.3296 6.85323 49.0802 2.06543H57.3363C57.1487 3.09809 57.0549 4.13076 56.8672 5.16342H51.8009V5.2573Z" />
</svg>
