<svg viewBox="0 0 125 19"  xmlns="http://www.w3.org/2000/svg">
<path d="M23.202 0L5.79631 0C2.66902 0 0.13385 2.53516 0.13385 5.66245L0.13385 13.2668C0.13385 16.3941 2.66902 18.9293 5.79631 18.9293H23.202C26.3293 18.9293 28.8644 16.3941 28.8644 13.2668V5.66245C28.8644 2.53516 26.3293 0 23.202 0Z" />
<path d="M8.66704 13.3336C9.68289 13.7315 10.5238 13.8007 11.3907 13.5574C12.2822 13.3073 16.7344 13.2999 17.6561 13.5471C18.6642 13.8174 19.5234 13.7189 20.7046 13.1979C22.2681 12.5081 22.5302 12.0216 22.5657 9.74351C22.6 7.53527 22.4659 7.01698 21.6898 6.35942C20.5538 5.39685 18.9188 5.00198 17.6005 5.37174C16.712 5.62098 12.5357 5.62956 11.6201 5.38402C10.5503 5.09713 9.53925 5.20943 8.31223 5.75156C6.77824 6.42929 6.46527 7.01413 6.42903 9.27042C6.38758 11.8528 6.80038 12.6023 8.66704 13.3336V13.3336ZM7.6836 9.49438C7.66483 7.72815 7.7204 7.44356 8.15545 7.0749C8.93748 6.41229 10.3379 6.50968 9.91731 7.19743C9.73428 7.49672 9.75427 11.2575 9.94226 11.908C10.0488 12.2764 10.0324 12.2854 9.30745 12.2548C7.96564 12.1982 7.70754 11.7595 7.6835 9.49438H7.6836ZM11.0225 9.38314C11.0563 6.7371 11.1144 6.68103 13.8769 6.62699C18.0623 6.54512 18.1689 6.62389 18.1087 9.76506C18.0624 12.1815 17.9503 12.2619 14.5905 12.2897C12.2692 12.309 11.9569 12.2678 11.502 11.8823C11.049 11.4985 10.9987 11.2368 11.0225 9.38314ZM19.217 11.2827C19.4229 10.3312 19.398 7.9493 19.1757 7.32755C18.8856 6.51607 20.0125 6.35371 20.8733 7.08298C21.3094 7.45251 21.3897 7.74519 21.4377 9.1393C21.4945 10.7923 21.3345 11.5733 20.8558 11.9789C20.5685 12.2223 19.357 12.4039 19.1561 12.2337C19.0887 12.1767 19.1161 11.7487 19.217 11.2827H19.217Z" fill="#020202"/>
<path d="M42.2759 16.8906C39.7508 16.2115 37.8018 14.2705 37.0281 11.6643C36.7646 10.7767 36.7249 8.76001 36.9515 7.77654C37.5653 5.11241 40.0328 2.75339 42.8059 2.17933C45.8609 1.54693 49.1911 2.8207 50.7932 5.23442C52.4097 7.66974 52.5165 11.0245 51.0569 13.5151C50.1582 15.0486 48.2978 16.4281 46.495 16.8977C45.4414 17.1721 43.3093 17.1685 42.2758 16.8911L42.2759 16.8906ZM46.4364 14.2885C48.1883 13.5062 49.3046 11.7258 49.3046 9.71397C49.3046 8.09689 48.7277 6.74247 47.6083 5.73111C46.8845 5.0772 46.4328 4.84347 45.4434 4.61082C43.0717 4.05316 40.5459 5.51379 39.8204 7.86252C38.9209 10.7748 40.3333 13.6352 43.1214 14.5477C43.7659 14.7586 45.7269 14.6052 46.4364 14.2885ZM70.6878 16.7698C68.6222 15.9204 67.4905 14.307 67.2004 11.7982C67.0974 10.9072 67.391 9.39308 67.8353 8.5243C68.333 7.55103 69.2564 6.65329 70.2695 6.1577C71.1491 5.72743 71.3452 5.61522 72.5959 5.61522C73.7914 5.61522 74.0693 5.73817 74.8244 6.09099C76.2741 6.76857 77.2822 7.98968 77.6926 9.5654C78.0145 10.801 77.9817 11.4176 77.5687 11.898L77.222 12.3014L73.5292 12.3444L69.8365 12.3874L69.931 12.7758C70.226 13.9884 71.2725 14.8137 72.656 14.9247C73.686 15.0075 74.3493 14.832 75.3101 14.2227C76.0831 13.7325 76.3166 13.7149 76.8178 14.1092C77.8145 14.8932 76.8031 16.2965 74.8037 16.903C73.6773 17.2448 71.686 17.1804 70.6878 16.77L70.6878 16.7698ZM75.3262 10.3245C75.3229 9.93528 74.623 8.66735 74.2485 8.37274C73.408 7.71163 72.1172 7.64167 71.1878 8.20686C70.6469 8.53578 70.0489 9.40103 69.9212 10.0393L69.8282 10.5042H72.5778C74.6825 10.5042 75.3272 10.4621 75.3262 10.3245ZM95.7843 16.8146C93.5888 15.9706 92.9012 13.135 94.4774 11.4251C95.6697 10.1315 98.0845 9.75178 100.794 10.4317C101.159 10.5235 101.163 10.5158 101.068 9.90347C100.931 9.0179 100.706 8.67912 100.016 8.32413C99.2432 7.92646 97.6208 7.90613 96.4384 8.27933C95.7557 8.49475 95.554 8.50747 95.1927 8.35781C94.5875 8.10714 94.358 7.50381 94.6517 6.93584C95.0032 6.25617 96.1531 5.88623 98.1947 5.79604C100.921 5.67553 102.295 6.2839 103.148 7.98829L103.579 8.85091L103.624 12.5508L103.669 16.2507L103.307 16.6124C102.689 17.2302 101.566 17.0305 101.189 16.236L100.99 15.8139L100.376 16.2654C99.1776 17.1464 97.2479 17.3772 95.7843 16.8146ZM99.972 14.7721C100.796 14.3121 101.089 13.839 101.114 12.9304L101.135 12.158L100.488 11.9897C99.4487 11.7193 97.9216 11.7621 97.2183 12.0813C96.1834 12.5511 95.8475 13.9153 96.5993 14.5957C97.3743 15.297 98.89 15.3763 99.972 14.7721ZM55.2646 16.6211L54.9118 16.2682V11.3669C54.9118 11.3669 54.7662 6.76435 54.9118 6.46552C54.9674 6.23087 55.2454 6.04843 55.2454 6.04843C55.943 5.35087 57.2479 5.82848 57.4319 6.80953L57.5186 7.27178L58.1678 6.66718C59.0189 5.87464 59.9668 5.55831 61.221 5.64836C62.378 5.73142 63.1853 6.11684 63.8647 6.91053C64.7066 7.89414 64.8321 8.64302 64.8321 12.6866V16.216L64.453 16.595C63.9861 17.0619 63.1627 17.1098 62.6554 16.6995C62.3203 16.4285 62.3151 16.3822 62.2441 13.0692C62.1642 9.33873 62.0583 8.86834 61.1773 8.33113C60.5302 7.93647 59.2667 7.96265 58.6483 8.38345C57.59 9.10375 57.5794 9.14535 57.4996 12.8992L57.4277 16.2807L57.0243 16.6273C56.4803 17.0947 55.7356 17.092 55.2645 16.6208L55.2646 16.6211ZM81.0676 16.6032L80.7191 16.2323L80.6788 9.847C80.6355 2.97731 80.6489 2.83679 81.3795 2.44576C81.5809 2.33801 82.7594 2.30155 85.0163 2.3336C85.0163 2.3336 87.5903 2.27964 88.3295 2.45803C89.0687 2.63635 89.4517 2.92324 89.4517 2.92324C91.0255 3.70145 91.7245 4.65518 92.0245 6.43325C92.4387 8.8881 91.2513 10.829 88.7326 11.8139C88.0369 12.0859 87.5532 12.146 85.6433 12.198L83.3789 12.2597V14.1745C83.3789 16.0248 83.3658 16.1043 83.0067 16.5317C82.504 17.129 81.5934 17.1626 81.0676 16.6032ZM87.5628 9.62177C89.2461 9.05817 89.9093 7.22019 88.9432 5.79633C88.3908 4.98224 87.8784 4.83084 85.4995 4.77891L83.3789 4.73263V7.25903V9.78542H85.2265C86.2426 9.78542 87.294 9.71181 87.5628 9.62177ZM107.023 16.6212L106.67 16.2683V11.3669V6.46552L107.023 6.11262C107.831 5.30431 109.08 5.8652 109.22 7.09894C109.295 7.76515 109.302 7.77375 109.515 7.45363C109.89 6.88942 110.608 6.17507 111.012 5.96313C112.337 5.26922 113.691 6.31147 113.093 7.56479C112.91 7.94869 112.722 8.08777 112.158 8.25525C111.15 8.55466 110.643 8.84513 110.188 9.38484C109.433 10.2798 109.349 10.6628 109.265 13.5721L109.186 16.2806L108.783 16.6273C108.239 17.0948 107.494 17.0922 107.023 16.6208L107.023 16.6212ZM115.649 16.6212L115.297 16.2683V9.28217V2.2961L115.649 1.9432C116.121 1.47209 116.865 1.46951 117.409 1.93667L117.813 2.28347L117.855 6.55856L117.897 10.8337L120.459 8.29647C122.846 5.93281 123.057 5.75928 123.551 5.75928C124.238 5.75928 124.786 6.27662 124.786 6.92691C124.786 7.40494 124.399 7.84344 122.164 9.90084L121.339 10.6598L123.134 13.0255C124.599 14.9553 124.929 15.4794 124.929 15.8698C124.929 16.7476 123.891 17.2742 123.048 16.8235C122.894 16.7409 122.053 15.7219 121.179 14.559C120.305 13.3962 119.537 12.4447 119.473 12.4447C119.409 12.4447 119.033 12.7483 118.636 13.1193L117.915 13.7939L117.864 15.0368C117.816 16.1904 117.784 16.3046 117.409 16.6266C116.865 17.0944 116.121 17.0919 115.65 16.6201L115.649 16.6212Z" />
</svg>
