<svg  viewBox="0 0 81 22"  xmlns="http://www.w3.org/2000/svg">
<rect x="63.677" y="4.3764" width="2.74189" height="10.9675" />
<rect x="63.677" y="0.720459" width="2.74189" height="2.74189" />
<path fill-rule="evenodd" clip-rule="evenodd" d="M30.3045 7.20159H28.5041V15.3425H25.1577V7.20159H23.9444V4.42272H25.1577V4.1096C25.1577 2.76583 25.5426 1.74821 26.3123 1.05676C27.0821 0.352252 28.2106 0 29.6978 0C29.9457 0 30.1284 0.00652303 30.2458 0.0195692V2.85715C29.6065 2.81801 29.1564 2.90934 28.8955 3.13113C28.6346 3.35292 28.5041 3.75083 28.5041 4.32487V4.42272H30.3045V7.20159ZM4.14874 10.1566L7.0059 15.3425H10.7828L7.61255 9.90219C8.61712 9.60212 9.37381 9.09332 9.88262 8.37577C9.96428 8.26349 10.0395 8.14881 10.1084 8.03174H3.3556L4.26956 4.83287H0V15.3425H3.34639V10.1566H4.14874ZM0 3.46193H6.09748L5.18352 6.6608H10.6062C10.6457 6.42446 10.6654 6.18071 10.6654 5.92957C10.6654 5.1207 10.4762 4.3901 10.0979 3.73778C9.71954 3.07242 9.1455 2.55056 8.37576 2.17222C7.61908 1.79387 6.69931 1.6047 5.61646 1.6047H0V3.46193ZM23.0009 10.685C23.0401 10.3458 23.0596 10.0196 23.0596 9.70649C23.0596 8.6106 22.8248 7.65169 22.3551 6.82977C21.8985 6.00785 21.2592 5.3751 20.4373 4.93153C19.6154 4.48795 18.6761 4.26616 17.6193 4.26616C16.5365 4.26616 15.5776 4.49447 14.7426 4.9511C13.9076 5.40772 13.2553 6.06004 12.7856 6.90805C12.329 7.75606 12.1007 8.74759 12.1007 9.88262C12.1007 11.0177 12.3355 12.0092 12.8052 12.8572C13.2749 13.7052 13.9272 14.3575 14.7622 14.8141C15.5971 15.2708 16.5495 15.4991 17.6193 15.4991C18.5065 15.4991 19.3088 15.336 20.0264 15.0098C20.7439 14.6837 21.3375 14.2336 21.8072 13.6595C22.2899 13.0855 22.6226 12.4397 22.8052 11.7222H19.2436C18.9174 12.4267 18.3369 12.7789 17.5019 12.7789C16.9409 12.7789 16.4647 12.6028 16.0733 12.2505C15.695 11.8852 15.4797 11.3634 15.4275 10.685H23.0009ZM19.0479 7.456C19.4393 7.7952 19.635 8.25182 19.635 8.82586H15.4471C15.5384 8.22573 15.7733 7.76259 16.1516 7.43643C16.543 7.11027 17.0192 6.94719 17.5802 6.94719C18.1673 6.94719 18.6565 7.11679 19.0479 7.456ZM42.1118 10.685C42.151 10.3458 42.1705 10.0196 42.1705 9.70649C42.1705 8.6106 41.9357 7.65169 41.466 6.82977C41.0094 6.00785 40.3701 5.3751 39.5482 4.93153C38.7263 4.48795 37.7869 4.26616 36.7302 4.26616C35.6473 4.26616 34.6884 4.49447 33.8535 4.9511C33.0185 5.40772 32.3662 6.06004 31.8965 6.90805C31.4399 7.75606 31.2116 8.74759 31.2116 9.88262C31.2116 11.0177 31.4464 12.0092 31.9161 12.8572C32.3858 13.7052 33.0381 14.3575 33.873 14.8141C34.708 15.2708 35.6604 15.4991 36.7302 15.4991C37.6173 15.4991 38.4197 15.336 39.1372 15.0098C39.8548 14.6837 40.4484 14.2336 40.9181 13.6595C41.4008 13.0855 41.7335 12.4397 41.9161 11.7222H38.3545C38.0283 12.4267 37.4477 12.7789 36.6128 12.7789C36.0518 12.7789 35.5756 12.6028 35.1842 12.2505C34.8059 11.8852 34.5906 11.3634 34.5384 10.685H42.1118ZM38.1588 7.456C38.5502 7.7952 38.7459 8.25182 38.7459 8.82586H34.558C34.6493 8.22573 34.8841 7.76259 35.2625 7.43643C35.6539 7.11027 36.1301 6.94719 36.6911 6.94719C37.2781 6.94719 37.7674 7.11679 38.1588 7.456ZM47.2823 6.24268C47.6737 5.64255 48.1629 5.17288 48.75 4.83368C49.3371 4.48143 49.9894 4.3053 50.707 4.3053V7.84739H49.7872C48.9522 7.84739 48.326 8.03004 47.9085 8.39534C47.491 8.74759 47.2823 9.37381 47.2823 10.274V15.3425H43.9359V4.42272H47.2823V6.24268ZM61.7781 12.6028H55.8681L61.7781 4.14874V1.6047H52.0716V4.34444H57.9425L52.0716 12.7985V15.3425H61.7781V12.6028ZM72.168 5.96871C72.4942 5.4599 72.9443 5.04894 73.5183 4.73583C74.0924 4.42272 74.7643 4.26616 75.534 4.26616C76.4342 4.26616 77.2496 4.49447 77.9802 4.9511C78.7108 5.40772 79.2848 6.06004 79.7023 6.90805C80.1328 7.75606 80.3481 8.74106 80.3481 9.86305C80.3481 10.985 80.1328 11.9766 79.7023 12.8376C79.2848 13.6856 78.7108 14.3445 77.9802 14.8141C77.2496 15.2708 76.4342 15.4991 75.534 15.4991C74.7773 15.4991 74.1054 15.3425 73.5183 15.0294C72.9443 14.7163 72.4942 14.3119 72.168 13.8161V20.548H68.8216V4.42272H72.168V5.96871ZM76.943 9.86305C76.943 9.02808 76.7082 8.37576 76.2385 7.9061C75.7819 7.42338 75.2144 7.18202 74.5359 7.18202C73.8706 7.18202 73.3031 7.42338 72.8334 7.9061C72.3768 8.38881 72.1485 9.04765 72.1485 9.88262C72.1485 10.7176 72.3768 11.3764 72.8334 11.8591C73.3031 12.3419 73.8706 12.5832 74.5359 12.5832C75.2013 12.5832 75.7688 12.3419 76.2385 11.8591C76.7082 11.3634 76.943 10.698 76.943 9.86305Z" />
</svg>
