<svg  viewBox="0 0 67 19"  xmlns="http://www.w3.org/2000/svg">
<path d="M9.82161 10.8014C9.82161 11.5443 9.63876 12.1842 9.27307 12.7213C8.91308 13.2585 8.39311 13.6699 7.71314 13.9556C7.03888 14.2413 6.2332 14.3841 5.2961 14.3841C4.83898 14.3841 4.40186 14.3584 3.98474 14.307C3.56761 14.2556 3.17334 14.1813 2.80193 14.0841C2.43623 13.9813 2.10196 13.8584 1.79912 13.7156V11.7785C2.30767 12.0014 2.87621 12.2042 3.50476 12.3871C4.1333 12.5642 4.77327 12.6528 5.42467 12.6528C5.95607 12.6528 6.39605 12.5842 6.74461 12.4471C7.09888 12.3042 7.36172 12.1042 7.53314 11.8471C7.70457 11.5843 7.79028 11.2786 7.79028 10.93C7.79028 10.5586 7.69028 10.2443 7.49029 9.98719C7.2903 9.73005 6.98746 9.49578 6.58176 9.28436C6.18178 9.06723 5.67894 8.83581 5.07326 8.59011C4.66185 8.4244 4.26758 8.23584 3.89045 8.02442C3.51904 7.813 3.18763 7.56444 2.89621 7.27874C2.6048 6.99304 2.37338 6.65591 2.20196 6.26736C2.03625 5.87309 1.9534 5.41025 1.9534 4.87885C1.9534 4.17031 2.12196 3.56462 2.45909 3.06179C2.80193 2.55895 3.28191 2.17326 3.89902 1.9047C4.52185 1.63614 5.24753 1.50186 6.07607 1.50186C6.73318 1.50186 7.3503 1.57043 7.92741 1.70756C8.51024 1.8447 9.08165 2.03898 9.64162 2.29039L8.99022 3.9446C8.47596 3.73319 7.97598 3.56462 7.49029 3.43891C7.01031 3.3132 6.51891 3.25035 6.01607 3.25035C5.58181 3.25035 5.21325 3.31606 4.91041 3.44748C4.60756 3.57891 4.37615 3.76461 4.21615 4.0046C4.06187 4.23888 3.98474 4.51886 3.98474 4.84456C3.98474 5.21026 4.0733 5.51882 4.25044 5.77024C4.43329 6.01594 4.71327 6.24164 5.0904 6.44735C5.47324 6.65305 5.96464 6.88161 6.56462 7.13303C7.25601 7.41873 7.8417 7.71872 8.32168 8.03299C8.80737 8.34726 9.17878 8.72439 9.43592 9.16437C9.69305 9.59863 9.82161 10.1443 9.82161 10.8014ZM14.0471 0.876172V4.22745C14.0471 4.576 14.0357 4.91599 14.0128 5.2474C13.9957 5.57882 13.9757 5.83595 13.9529 6.0188H14.0643C14.2643 5.68738 14.51 5.41597 14.8014 5.20455C15.0928 4.98741 15.4185 4.82456 15.7785 4.716C16.1442 4.60743 16.5327 4.55315 16.9441 4.55315C17.6698 4.55315 18.2869 4.676 18.7955 4.9217C19.304 5.16169 19.6926 5.53596 19.9611 6.04451C20.2354 6.55306 20.3726 7.21303 20.3726 8.02442V14.2127H18.3584V8.40154C18.3584 7.66443 18.2069 7.11303 17.9041 6.74733C17.6013 6.37592 17.1327 6.19022 16.4985 6.19022C15.887 6.19022 15.4014 6.31878 15.0414 6.57591C14.6871 6.82733 14.4328 7.2016 14.2786 7.69872C14.1243 8.19012 14.0471 8.7901 14.0471 9.49864V14.2127H12.0329V0.876172H14.0471ZM28.0608 4.54458C29.1864 4.54458 30.0893 4.95599 30.7692 5.77881C31.4549 6.60163 31.7978 7.82443 31.7978 9.44721C31.7978 10.5214 31.6378 11.4271 31.3178 12.1642C31.0035 12.8956 30.5607 13.4499 29.9893 13.827C29.4236 14.1984 28.7636 14.3841 28.0094 14.3841C27.5294 14.3841 27.1123 14.3213 26.758 14.1956C26.4037 14.0699 26.1009 13.907 25.8495 13.707C25.598 13.5013 25.3866 13.2785 25.2152 13.0385H25.0952C25.1238 13.267 25.1495 13.5213 25.1723 13.8013C25.2009 14.0756 25.2152 14.327 25.2152 14.5555V18.4211H23.1924V4.72457H24.8381L25.1209 6.03594H25.2152C25.3923 5.76738 25.6066 5.51882 25.858 5.29026C26.1152 5.0617 26.4237 4.8817 26.7837 4.75028C27.1494 4.61314 27.5751 4.54458 28.0608 4.54458ZM27.5208 6.19022C26.9665 6.19022 26.5209 6.30164 26.1837 6.52449C25.8523 6.74162 25.6095 7.07018 25.4552 7.51016C25.3066 7.95014 25.2266 8.50154 25.2152 9.16437V9.44721C25.2152 10.15 25.2866 10.7472 25.4295 11.2386C25.578 11.7242 25.8209 12.0957 26.158 12.3528C26.5009 12.6042 26.9637 12.7299 27.5465 12.7299C28.0379 12.7299 28.4436 12.5956 28.7636 12.3271C29.0893 12.0585 29.3322 11.6757 29.4921 11.1786C29.6521 10.6814 29.7321 10.0958 29.7321 9.4215C29.7321 8.39869 29.5493 7.60444 29.1836 7.03875C28.8236 6.47306 28.2693 6.19022 27.5208 6.19022ZM38.9974 4.54458C40.1231 4.54458 41.0259 4.95599 41.7059 5.77881C42.3916 6.60163 42.7344 7.82443 42.7344 9.44721C42.7344 10.5214 42.5744 11.4271 42.2544 12.1642C41.9401 12.8956 41.4973 13.4499 40.9259 13.827C40.3602 14.1984 39.7002 14.3841 38.946 14.3841C38.466 14.3841 38.0489 14.3213 37.6946 14.1956C37.3404 14.0699 37.0375 13.907 36.7861 13.707C36.5347 13.5013 36.3233 13.2785 36.1518 13.0385H36.0318C36.0604 13.267 36.0861 13.5213 36.109 13.8013C36.1376 14.0756 36.1518 14.327 36.1518 14.5555V18.4211H34.1291V4.72457H35.7747L36.0576 6.03594H36.1518C36.329 5.76738 36.5433 5.51882 36.7947 5.29026C37.0518 5.0617 37.3604 4.8817 37.7203 4.75028C38.086 4.61314 38.5117 4.54458 38.9974 4.54458ZM38.4574 6.19022C37.9032 6.19022 37.4575 6.30164 37.1204 6.52449C36.789 6.74162 36.5461 7.07018 36.3918 7.51016C36.2433 7.95014 36.1633 8.50154 36.1518 9.16437V9.44721C36.1518 10.15 36.2233 10.7472 36.3661 11.2386C36.5147 11.7242 36.7575 12.0957 37.0947 12.3528C37.4375 12.6042 37.9003 12.7299 38.4832 12.7299C38.9746 12.7299 39.3803 12.5956 39.7002 12.3271C40.0259 12.0585 40.2688 11.6757 40.4288 11.1786C40.5888 10.6814 40.6688 10.0958 40.6688 9.4215C40.6688 8.39869 40.4859 7.60444 40.1202 7.03875C39.7602 6.47306 39.206 6.19022 38.4574 6.19022ZM48.8455 4.54458C49.6912 4.54458 50.4169 4.71885 51.0226 5.06741C51.6283 5.41597 52.094 5.91023 52.4197 6.5502C52.7454 7.19017 52.9082 7.95585 52.9082 8.84724V9.92719H46.5742C46.5971 10.8471 46.8428 11.5557 47.3113 12.0528C47.7856 12.5499 48.4484 12.7985 49.2998 12.7985C49.9055 12.7985 50.4483 12.7413 50.9283 12.6271C51.414 12.5071 51.914 12.3328 52.4282 12.1042V13.7413C51.954 13.9641 51.4711 14.127 50.9797 14.2298C50.4883 14.3327 49.8998 14.3841 49.2141 14.3841C48.2827 14.3841 47.4628 14.2041 46.7542 13.8442C46.0514 13.4785 45.5 12.9356 45.1 12.2157C44.7057 11.4957 44.5086 10.6014 44.5086 9.53292C44.5086 8.47011 44.6886 7.5673 45.0486 6.82447C45.4086 6.08165 45.9143 5.51596 46.5657 5.12741C47.2171 4.73885 47.977 4.54458 48.8455 4.54458ZM48.8455 6.06165C48.2113 6.06165 47.697 6.26736 47.3028 6.67877C46.9142 7.09017 46.6856 7.693 46.6171 8.48725H50.9369C50.9312 8.01299 50.8512 7.59301 50.6969 7.22731C50.5483 6.86161 50.3198 6.57591 50.0112 6.37021C49.7084 6.1645 49.3198 6.06165 48.8455 6.06165ZM59.9879 4.54458C60.1479 4.54458 60.3222 4.55315 60.5107 4.57029C60.6993 4.58743 60.8621 4.61029 60.9993 4.63886L60.8107 6.52449C60.6907 6.4902 60.5422 6.46449 60.365 6.44735C60.1936 6.4302 60.0393 6.42163 59.9022 6.42163C59.5422 6.42163 59.1994 6.48163 58.8737 6.60163C58.548 6.71591 58.2594 6.89304 58.008 7.13303C57.7566 7.36731 57.5594 7.66158 57.4166 8.01585C57.2737 8.37012 57.2023 8.78153 57.2023 9.25008V14.2127H55.1795V4.72457H56.7566L57.0309 6.39592H57.1252C57.3137 6.05879 57.548 5.75024 57.828 5.47025C58.108 5.19026 58.428 4.96741 58.788 4.80171C59.1536 4.63029 59.5536 4.54458 59.9879 4.54458Z" />
<path d="M9.27307 12.7213L9.02411 12.5518L9.02288 12.5537L9.27307 12.7213ZM7.71314 13.9556L7.59647 13.6779L7.59563 13.6783L7.71314 13.9556ZM2.80193 14.0841L2.72038 14.3741L2.72573 14.3755L2.80193 14.0841ZM1.79912 13.7156H1.49794V13.9065L1.67063 13.988L1.79912 13.7156ZM1.79912 11.7785L1.92 11.5027L1.49794 11.3177V11.7785H1.79912ZM3.50476 12.3871L3.42063 12.6763L3.42306 12.677L3.50476 12.3871ZM6.74461 12.4471L6.85488 12.7274L6.85724 12.7264L6.74461 12.4471ZM7.53314 11.8471L7.78375 12.0142L7.78542 12.0116L7.53314 11.8471ZM6.58176 9.28436L6.43805 9.54909L6.44257 9.55145L6.58176 9.28436ZM5.07326 8.59011L5.18647 8.31102L5.18578 8.31074L5.07326 8.59011ZM3.89045 8.02442L3.74146 8.28617L3.74318 8.28713L3.89045 8.02442ZM2.20196 6.26736L1.92426 6.38407L1.92641 6.38892L2.20196 6.26736ZM2.45909 3.06179L2.21024 2.89212L2.20893 2.89407L2.45909 3.06179ZM3.89902 1.9047L3.77977 1.62813L3.77884 1.62854L3.89902 1.9047ZM7.92741 1.70756L7.85778 2.00058L7.85843 2.00074L7.92741 1.70756ZM9.64162 2.29039L9.92185 2.40074L10.0272 2.13335L9.76498 2.01564L9.64162 2.29039ZM8.99022 3.9446L8.8757 4.22316L9.15845 4.3394L9.27046 4.05496L8.99022 3.9446ZM7.49029 3.43891L7.41398 3.73027L7.41482 3.73048L7.49029 3.43891ZM4.21615 4.0046L3.96555 3.83753L3.96462 3.83896L4.21615 4.0046ZM4.25044 5.77024L4.00415 5.94376L4.00882 5.95004L4.25044 5.77024ZM5.0904 6.44735L4.94618 6.71176L4.94785 6.71265L5.0904 6.44735ZM6.56462 7.13303L6.44822 7.41081L6.4496 7.41138L6.56462 7.13303ZM8.32168 8.03299L8.1567 8.28496L8.15806 8.28585L8.32168 8.03299ZM9.43591 9.16437L9.17588 9.31633L9.17676 9.31781L9.43591 9.16437ZM9.52043 10.8014C9.52043 11.4927 9.35108 12.0716 9.02411 12.5518L9.52202 12.8908C9.92645 12.2968 10.1228 11.5958 10.1228 10.8014H9.52043ZM9.02288 12.5537C8.70014 13.0352 8.23 13.4117 7.59647 13.6779L7.8298 14.2332C8.55621 13.928 9.12603 13.4817 9.52325 12.889L9.02288 12.5537ZM7.59563 13.6783C6.96737 13.9445 6.20367 14.0829 5.2961 14.0829V14.6853C6.26274 14.6853 7.11039 14.5381 7.83064 14.2329L7.59563 13.6783ZM5.2961 14.0829C4.85024 14.0829 4.42548 14.0579 4.02159 14.0081L3.94788 14.6059C4.37824 14.659 4.82772 14.6853 5.2961 14.6853V14.0829ZM4.02159 14.0081C3.6165 13.9581 3.23547 13.8862 2.87814 13.7928L2.72573 14.3755C3.11122 14.4763 3.51872 14.553 3.94788 14.6059L4.02159 14.0081ZM2.88347 13.7942C2.53178 13.6953 2.21346 13.578 1.92761 13.4432L1.67063 13.988C1.99047 14.1388 2.34069 14.2673 2.72039 14.3741L2.88347 13.7942ZM2.1003 13.7156V11.7785H1.49794V13.7156H2.1003ZM1.67824 12.0544C2.20063 12.2833 2.78171 12.4904 3.42063 12.6763L3.58889 12.0979C2.97072 11.9181 2.41471 11.7195 1.92 11.5027L1.67824 12.0544ZM3.42306 12.677C4.07812 12.8616 4.74558 12.954 5.42467 12.954V12.3516C4.80096 12.3516 4.18848 12.2669 3.58645 12.0972L3.42306 12.677ZM5.42467 12.954C5.97924 12.954 6.4598 12.8828 6.85488 12.7273L6.63434 12.1668C6.33231 12.2856 5.9329 12.3516 5.42467 12.3516V12.954ZM6.85724 12.7264C7.25437 12.5663 7.57148 12.3326 7.78374 12.0142L7.28255 11.68C7.15197 11.8759 6.94339 12.0422 6.63198 12.1677L6.85724 12.7264ZM7.78542 12.0116C7.99223 11.6945 8.09145 11.3303 8.09145 10.93H7.4891C7.4891 11.2268 7.4169 11.474 7.28087 11.6826L7.78542 12.0116ZM8.09145 10.93C8.09145 10.5015 7.9748 10.1196 7.72803 9.80228L7.25255 10.1721C7.40576 10.3691 7.4891 10.6157 7.4891 10.93H8.09145ZM7.72803 9.80228C7.493 9.5001 7.15053 9.24114 6.72095 9.01727L6.44257 9.55145C6.82438 9.75042 7.0876 9.96 7.25255 10.1721L7.72803 9.80228ZM6.72545 9.01967C6.31236 8.79542 5.7985 8.55929 5.18647 8.31102L4.96004 8.8692C5.55938 9.11232 6.0512 9.33904 6.43807 9.54905L6.72545 9.01967ZM5.18578 8.31074C4.78599 8.14971 4.40335 7.96668 4.03773 7.76171L3.74318 8.28713C4.1318 8.505 4.5377 8.69909 4.96073 8.86948L5.18578 8.31074ZM4.03945 7.76267C3.68951 7.56348 3.3791 7.33038 3.10706 7.06367L2.68537 7.4938C2.99616 7.7985 3.34857 8.06252 3.74146 8.28616L4.03945 7.76267ZM3.10706 7.06367C2.84406 6.80583 2.63413 6.5008 2.47751 6.14579L1.92641 6.38892C2.11263 6.81102 2.36554 7.18024 2.68537 7.4938L3.10706 7.06367ZM2.47961 6.15066C2.33271 5.80113 2.25458 5.37959 2.25458 4.87885H1.65222C1.65222 5.44091 1.7398 5.94505 1.92431 6.38405L2.47961 6.15066ZM2.25458 4.87885C2.25458 4.21962 2.41074 3.67473 2.70925 3.22951L2.20893 2.89407C1.83318 3.45451 1.65222 4.12099 1.65222 4.87885H2.25458ZM2.70793 3.23145C3.01545 2.78042 3.44846 2.42924 4.01921 2.18086L3.77884 1.62854C3.11536 1.91727 2.58841 2.33749 2.21025 2.89212L2.70793 3.23145ZM4.01828 2.18126C4.59608 1.93211 5.27969 1.80304 6.07607 1.80304V1.20068C5.21538 1.20068 4.44762 1.34016 3.77977 1.62813L4.01828 2.18126ZM6.07607 1.80304C6.71222 1.80304 7.30578 1.86941 7.85778 2.00058L7.99704 1.41454C7.39481 1.27144 6.75415 1.20068 6.07607 1.20068V1.80304ZM7.85843 2.00074C8.42213 2.13337 8.97534 2.32139 9.51826 2.56515L9.76498 2.01564C9.18795 1.75656 8.59836 1.55603 7.99639 1.41439L7.85843 2.00074ZM9.36139 2.18004L8.70999 3.83425L9.27046 4.05496L9.92185 2.40074L9.36139 2.18004ZM9.10474 3.66605C8.57911 3.44996 8.06608 3.27684 7.56575 3.14734L7.41482 3.73048C7.88588 3.8524 8.3728 4.01641 8.8757 4.22316L9.10474 3.66605ZM7.5666 3.14756C7.06137 3.01524 6.54431 2.94917 6.01607 2.94917V3.55153C6.4935 3.55153 6.95925 3.61117 7.41398 3.73026L7.5666 3.14756ZM6.01607 2.94917C5.55294 2.94917 5.14111 3.01905 4.79051 3.1712L5.0303 3.72377C5.2854 3.61307 5.61067 3.55153 6.01607 3.55153V2.94917ZM4.79051 3.1712C4.44239 3.32227 4.16216 3.54264 3.96556 3.83754L4.46675 4.17166C4.59013 3.98659 4.77274 3.83554 5.0303 3.72377L4.79051 3.1712ZM3.96462 3.83896C3.773 4.12993 3.68356 4.46969 3.68356 4.84456H4.28591C4.28591 4.56803 4.35075 4.34782 4.46769 4.17025L3.96462 3.83896ZM3.68356 4.84456C3.68356 5.26034 3.78497 5.6325 4.00423 5.9437L4.49665 5.59677C4.36163 5.40514 4.28591 5.16018 4.28591 4.84456H3.68356ZM4.00882 5.95004C4.2259 6.24174 4.54522 6.49305 4.94618 6.71175L5.23462 6.18294C4.88133 5.99024 4.64067 5.79013 4.49205 5.59043L4.00882 5.95004ZM4.94785 6.71265C5.34225 6.92457 5.84324 7.15729 6.44822 7.41081L6.68102 6.85525C6.08605 6.60594 5.60422 6.38153 5.23295 6.18204L4.94785 6.71265ZM6.4496 7.41138C7.12849 7.69191 7.69643 7.98359 8.1567 8.28496L8.48666 7.78102C7.98698 7.45384 7.38354 7.14555 6.67964 6.85468L6.4496 7.41138ZM8.15806 8.28585C8.60955 8.57799 8.94559 8.92227 9.17589 9.31633L9.69594 9.0124C9.41198 8.5265 9.00519 8.11653 8.4853 7.78013L8.15806 8.28585ZM9.17676 9.31781C9.39926 9.6936 9.52043 10.1824 9.52043 10.8014H10.1228C10.1228 10.1063 9.98683 9.50366 9.69507 9.01092L9.17676 9.31781ZM14.0471 0.876172H14.3483V0.574994H14.0471V0.876172ZM14.0128 5.2474L13.7123 5.22668L13.7121 5.23184L14.0128 5.2474ZM13.9529 6.0188L13.654 5.98144L13.6117 6.31997H13.9529V6.0188ZM14.0643 6.0188V6.31997H14.2343L14.3221 6.1744L14.0643 6.0188ZM14.8014 5.20455L14.9783 5.44835L14.9813 5.44606L14.8014 5.20455ZM15.7785 4.716L15.6928 4.42727L15.6915 4.42765L15.7785 4.716ZM18.7955 4.9217L18.6645 5.1929L18.667 5.19408L18.7955 4.9217ZM19.9611 6.04451L19.6948 6.18516L19.6961 6.18747L19.9611 6.04451ZM20.3726 14.2127V14.5139H20.6737V14.2127H20.3726ZM18.3584 14.2127H18.0572V14.5139H18.3584V14.2127ZM17.9041 6.74733L17.6707 6.93766L17.6721 6.93943L17.9041 6.74733ZM15.0414 6.57591L15.2157 6.82153L15.2164 6.82099L15.0414 6.57591ZM14.2786 7.69872L14.5659 7.78893L14.5662 7.78799L14.2786 7.69872ZM14.0471 14.2127V14.5139H14.3483V14.2127H14.0471ZM12.0329 14.2127H11.7318V14.5139H12.0329V14.2127ZM12.0329 0.876172V0.574994H11.7318V0.876172H12.0329ZM13.746 0.876172V4.22745H14.3483V0.876172H13.746ZM13.746 4.22745C13.746 4.56943 13.7347 4.90249 13.7124 5.22668L14.3133 5.26812C14.3367 4.92949 14.3483 4.58258 14.3483 4.22745H13.746ZM13.7121 5.23184C13.6951 5.56074 13.6755 5.80938 13.654 5.98144L14.2517 6.05615C14.2759 5.86251 14.2964 5.59689 14.3136 5.26296L13.7121 5.23184ZM13.9529 6.31997H14.0643V5.71762H13.9529V6.31997ZM14.3221 6.1744C14.5029 5.87488 14.7219 5.63434 14.9782 5.44833L14.6245 4.96077C14.2981 5.19759 14.0256 5.49988 13.8064 5.86319L14.3221 6.1744ZM14.9813 5.44606C15.2437 5.25054 15.5378 5.10317 15.8654 5.00435L15.6915 4.42765C15.2992 4.54596 14.9419 4.72429 14.6214 4.96304L14.9813 5.44606ZM15.8642 5.00472C16.2 4.90504 16.5595 4.85433 16.9441 4.85433V4.25197C16.506 4.25197 16.0884 4.30983 15.6928 4.42727L15.8642 5.00472ZM16.9441 4.85433C17.6369 4.85433 18.2067 4.97172 18.6645 5.19289L18.9265 4.65052C18.3672 4.38028 17.7027 4.25197 16.9441 4.25197V4.85433ZM18.667 5.19408C19.1151 5.40556 19.456 5.73286 19.6948 6.18515L20.2275 5.90387C19.9292 5.33906 19.493 4.91782 18.924 4.64933L18.667 5.19408ZM19.6961 6.18747C19.939 6.63793 20.0714 7.24389 20.0714 8.02442H20.6737C20.6737 7.18216 20.5318 6.46818 20.2262 5.90154L19.6961 6.18747ZM20.0714 8.02442V14.2127H20.6737V8.02442H20.0714ZM20.3726 13.9115H18.3584V14.5139H20.3726V13.9115ZM18.6595 14.2127V8.40154H18.0572V14.2127H18.6595ZM18.6595 8.40154C18.6595 7.63107 18.5025 6.99775 18.1361 6.55524L17.6721 6.93943C17.9114 7.22831 18.0572 7.6978 18.0572 8.40154H18.6595ZM18.1375 6.55701C17.7602 6.0943 17.1918 5.88904 16.4985 5.88904V6.49139C17.0736 6.49139 17.4423 6.65755 17.6707 6.93766L18.1375 6.55701ZM16.4985 5.88904C15.8477 5.88904 15.2936 6.02564 14.8663 6.33083L15.2164 6.82099C15.5091 6.61192 15.9264 6.49139 16.4985 6.49139V5.88904ZM14.8671 6.3303C14.4488 6.62713 14.1608 7.06209 13.9909 7.60945L14.5662 7.78799C14.7049 7.3411 14.9254 7.02753 15.2157 6.82153L14.8671 6.3303ZM13.9912 7.6085C13.825 8.13775 13.746 8.77012 13.746 9.49864H14.3483C14.3483 8.81007 14.4235 8.24249 14.5659 7.78893L13.9912 7.6085ZM13.746 9.49864V14.2127H14.3483V9.49864H13.746ZM14.0471 13.9115H12.0329V14.5139H14.0471V13.9115ZM12.3341 14.2127V0.876172H11.7318V14.2127H12.3341ZM12.0329 1.17735H14.0471V0.574994H12.0329V1.17735ZM30.7692 5.77881L30.5371 5.97066L30.5379 5.97162L30.7692 5.77881ZM31.3178 12.1642L31.0415 12.0443L31.0411 12.0453L31.3178 12.1642ZM29.9893 13.827L30.1546 14.0788L30.1552 14.0784L29.9893 13.827ZM25.8495 13.707L25.6587 13.9401L25.662 13.9427L25.8495 13.707ZM25.2152 13.0385L25.4603 12.8634L25.3702 12.7373H25.2152V13.0385ZM25.0952 13.0385V12.7373H24.754L24.7963 13.0758L25.0952 13.0385ZM25.1723 13.8013L24.8721 13.8258L24.8728 13.8325L25.1723 13.8013ZM25.2152 18.4211V18.7223H25.5164V18.4211H25.2152ZM23.1924 18.4211H22.8913V18.7223H23.1924V18.4211ZM23.1924 4.72457V4.42339H22.8913V4.72457H23.1924ZM24.8381 4.72457L25.1325 4.66107L25.0812 4.42339H24.8381V4.72457ZM25.1209 6.03594L24.8265 6.09944L24.8778 6.33712H25.1209V6.03594ZM25.2152 6.03594V6.33712H25.3773L25.4666 6.20176L25.2152 6.03594ZM25.858 5.29026L25.6579 5.06514L25.6554 5.0674L25.858 5.29026ZM26.7837 4.75028L26.887 5.03321L26.8894 5.03228L26.7837 4.75028ZM26.1837 6.52449L26.3488 6.77641L26.3498 6.77573L26.1837 6.52449ZM25.4552 7.51016L25.171 7.41049L25.1698 7.4138L25.4552 7.51016ZM25.2152 9.16437L24.914 9.15917V9.16437H25.2152ZM25.4295 11.2386L25.1402 11.3226L25.1415 11.3267L25.4295 11.2386ZM26.158 12.3528L25.9753 12.5923L25.9799 12.5957L26.158 12.3528ZM28.7636 12.3271L28.572 12.0947L28.57 12.0964L28.7636 12.3271ZM29.1836 7.03875L28.9295 7.20045L28.9307 7.20226L29.1836 7.03875ZM28.0608 4.84575C29.1023 4.84575 29.9178 5.2213 30.5371 5.97066L31.0014 5.58695C30.2607 4.69067 29.2706 4.2434 28.0608 4.2434V4.84575ZM30.5379 5.97162C31.1603 6.71853 31.4966 7.86007 31.4966 9.44721H32.0989C32.0989 7.78878 31.7495 6.48472 31.0006 5.586L30.5379 5.97162ZM31.4966 9.44721C31.4966 10.4933 31.3405 11.3555 31.0415 12.0443L31.594 12.2842C31.935 11.4988 32.0989 10.5496 32.0989 9.44721H31.4966ZM31.0411 12.0453C30.7461 12.7317 30.3381 13.2359 29.8234 13.5756L30.1552 14.0784C30.7832 13.6639 31.2609 13.0596 31.5945 12.2831L31.0411 12.0453ZM29.824 13.5752C29.3129 13.9108 28.7118 14.0829 28.0094 14.0829V14.6853C28.8154 14.6853 29.5343 14.486 30.1546 14.0788L29.824 13.5752ZM28.0094 14.0829C27.5546 14.0829 27.1731 14.0233 26.8587 13.9117L26.6573 14.4794C27.0514 14.6193 27.5041 14.6853 28.0094 14.6853V14.0829ZM26.8587 13.9117C26.5306 13.7953 26.2583 13.6474 26.0369 13.4713L25.662 13.9427C25.9435 14.1666 26.2768 14.3444 26.6573 14.4794L26.8587 13.9117ZM26.0402 13.4739C25.8073 13.2834 25.6147 13.0797 25.4603 12.8634L24.9701 13.2135C25.1585 13.4773 25.3888 13.7192 25.6587 13.9401L26.0402 13.4739ZM25.2152 12.7373H25.0952V13.3397H25.2152V12.7373ZM24.7963 13.0758C24.8243 13.2993 24.8496 13.5492 24.8722 13.8258L25.4725 13.7768C25.4494 13.4934 25.4233 13.2348 25.3941 13.0011L24.7963 13.0758ZM24.8728 13.8325C24.9005 14.0984 24.914 14.3393 24.914 14.5555H25.5164C25.5164 14.3147 25.5013 14.0527 25.4719 13.7701L24.8728 13.8325ZM24.914 14.5555V18.4211H25.5164V14.5555H24.914ZM25.2152 18.1199H23.1924V18.7223H25.2152V18.1199ZM23.4936 18.4211V4.72457H22.8913V18.4211H23.4936ZM23.1924 5.02575H24.8381V4.42339H23.1924V5.02575ZM24.5437 4.78807L24.8265 6.09944L25.4153 5.97244L25.1325 4.66107L24.5437 4.78807ZM25.1209 6.33712H25.2152V5.73476H25.1209V6.33712ZM25.4666 6.20176C25.6292 5.95532 25.8267 5.72572 26.0606 5.51311L25.6554 5.0674C25.3865 5.31192 25.1555 5.57944 24.9638 5.87011L25.4666 6.20176ZM26.0581 5.51536C26.2839 5.31471 26.5586 5.15309 26.887 5.0332L26.6804 4.46737C26.2889 4.61032 25.9465 4.80869 25.6579 5.06515L26.0581 5.51536ZM26.8894 5.03228C27.2142 4.9105 27.6027 4.84575 28.0608 4.84575V4.2434C27.5474 4.2434 27.0846 4.31579 26.6779 4.46828L26.8894 5.03228ZM27.5208 5.88904C26.9288 5.88904 26.4192 6.0078 26.0176 6.27324L26.3498 6.77573C26.6225 6.59548 27.0043 6.49139 27.5208 6.49139V5.88904ZM26.0187 6.27256C25.6225 6.53211 25.3431 6.9195 25.171 7.4105L25.7394 7.60981C25.8758 7.22085 26.0821 6.95113 26.3488 6.77641L26.0187 6.27256ZM25.1698 7.4138C25.0081 7.89279 24.9258 8.47743 24.9141 9.15917L25.5163 9.16956C25.5274 8.52565 25.6051 8.00749 25.7405 7.60651L25.1698 7.4138ZM24.914 9.16437V9.44721H25.5164V9.16437H24.914ZM24.914 9.44721C24.914 10.1687 24.9871 10.7959 25.1403 11.3226L25.7187 11.1545C25.5861 10.6984 25.5164 10.1314 25.5164 9.44721H24.914ZM25.1415 11.3267C25.3047 11.8604 25.5789 12.2899 25.9754 12.5923L26.3407 12.1133C26.0629 11.9015 25.8514 11.5881 25.7175 11.1505L25.1415 11.3267ZM25.9799 12.5957C26.3905 12.8967 26.9229 13.0311 27.5465 13.0311V12.4287C27.0044 12.4287 26.6112 12.3117 26.3361 12.1099L25.9799 12.5957ZM27.5465 13.0311C28.0956 13.0311 28.5737 12.8796 28.9572 12.5578L28.57 12.0964C28.3135 12.3116 27.9802 12.4287 27.5465 12.4287V13.0311ZM28.9552 12.5595C29.3348 12.2464 29.6054 11.8098 29.7788 11.2708L29.2054 11.0863C29.0589 11.5416 28.8438 11.8706 28.572 12.0947L28.9552 12.5595ZM29.7788 11.2708C29.9508 10.7367 30.0333 10.1185 30.0333 9.4215H29.431C29.431 10.073 29.3535 10.6262 29.2054 11.0863L29.7788 11.2708ZM30.0333 9.4215C30.0333 8.36867 29.8461 7.50877 29.4365 6.87524L28.9307 7.20226C29.2525 7.7001 29.431 8.4287 29.431 9.4215H30.0333ZM29.4377 6.87705C29.0152 6.21315 28.3581 5.88904 27.5208 5.88904V6.49139C28.1806 6.49139 28.632 6.73297 28.9295 7.20044L29.4377 6.87705ZM41.7059 5.77881L41.4737 5.97066L41.4745 5.97162L41.7059 5.77881ZM42.2544 12.1642L41.9781 12.0443L41.9777 12.0453L42.2544 12.1642ZM40.9259 13.827L41.0912 14.0788L41.0918 14.0784L40.9259 13.827ZM36.7861 13.707L36.5954 13.9401L36.5986 13.9427L36.7861 13.707ZM36.1518 13.0385L36.3969 12.8634L36.3068 12.7373H36.1518V13.0385ZM36.0318 13.0385V12.7373H35.6907L35.733 13.0758L36.0318 13.0385ZM36.109 13.8013L35.8087 13.8258L35.8094 13.8325L36.109 13.8013ZM36.1518 18.4211V18.7223H36.453V18.4211H36.1518ZM34.1291 18.4211H33.8279V18.7223H34.1291V18.4211ZM34.1291 4.72457V4.42339H33.8279V4.72457H34.1291ZM35.7747 4.72457L36.0691 4.66107L36.0179 4.42339H35.7747V4.72457ZM36.0576 6.03594L35.7631 6.09944L35.8144 6.33712H36.0576V6.03594ZM36.1518 6.03594V6.33712H36.314L36.4033 6.20176L36.1518 6.03594ZM36.7947 5.29026L36.5946 5.06514L36.5921 5.0674L36.7947 5.29026ZM37.7203 4.75028L37.8236 5.03321L37.8261 5.03228L37.7203 4.75028ZM37.1204 6.52449L37.2854 6.77641L37.2864 6.77573L37.1204 6.52449ZM36.3918 7.51016L36.1076 7.41049L36.1065 7.4138L36.3918 7.51016ZM36.1518 9.16437L35.8507 9.15917V9.16437H36.1518ZM36.3661 11.2386L36.0769 11.3226L36.0781 11.3267L36.3661 11.2386ZM37.0947 12.3528L36.912 12.5923L36.9165 12.5957L37.0947 12.3528ZM39.7002 12.3271L39.5086 12.0947L39.5066 12.0964L39.7002 12.3271ZM40.1202 7.03875L39.8661 7.20045L39.8673 7.20226L40.1202 7.03875ZM38.9974 4.84575C40.0389 4.84575 40.8544 5.2213 41.4737 5.97066L41.938 5.58695C41.1974 4.69067 40.2073 4.2434 38.9974 4.2434V4.84575ZM41.4745 5.97162C42.0969 6.71853 42.4332 7.86007 42.4332 9.44721H43.0356C43.0356 7.78878 42.6862 6.48472 41.9372 5.586L41.4745 5.97162ZM42.4332 9.44721C42.4332 10.4933 42.2772 11.3555 41.9781 12.0443L42.5307 12.2842C42.8716 11.4988 43.0356 10.5496 43.0356 9.44721H42.4332ZM41.9777 12.0453C41.6828 12.7317 41.2747 13.2359 40.76 13.5756L41.0918 14.0784C41.7199 13.6639 42.1975 13.0596 42.5311 12.2831L41.9777 12.0453ZM40.7606 13.5752C40.2495 13.9108 39.6485 14.0829 38.946 14.0829V14.6853C39.752 14.6853 40.4709 14.486 41.0912 14.0788L40.7606 13.5752ZM38.946 14.0829C38.4913 14.0829 38.1097 14.0233 37.7953 13.9117L37.5939 14.4794C37.9881 14.6193 38.4408 14.6853 38.946 14.6853V14.0829ZM37.7953 13.9117C37.4672 13.7953 37.1949 13.6474 36.9736 13.4713L36.5986 13.9427C36.8801 14.1666 37.2135 14.3444 37.5939 14.4794L37.7953 13.9117ZM36.9768 13.4739C36.7439 13.2834 36.5514 13.0797 36.3969 12.8634L35.9068 13.2135C36.0951 13.4773 36.3254 13.7192 36.5954 13.9401L36.9768 13.4739ZM36.1518 12.7373H36.0318V13.3397H36.1518V12.7373ZM35.733 13.0758C35.7609 13.2993 35.7862 13.5492 35.8088 13.8258L36.4092 13.7768C36.386 13.4934 36.3599 13.2348 36.3307 13.0011L35.733 13.0758ZM35.8094 13.8325C35.8371 14.0984 35.8507 14.3393 35.8507 14.5555H36.453C36.453 14.3147 36.438 14.0527 36.4085 13.7701L35.8094 13.8325ZM35.8507 14.5555V18.4211H36.453V14.5555H35.8507ZM36.1518 18.1199H34.1291V18.7223H36.1518V18.1199ZM34.4303 18.4211V4.72457H33.8279V18.4211H34.4303ZM34.1291 5.02575H35.7747V4.42339H34.1291V5.02575ZM35.4803 4.78807L35.7631 6.09944L36.352 5.97244L36.0691 4.66107L35.4803 4.78807ZM36.0576 6.33712H36.1518V5.73476H36.0576V6.33712ZM36.4033 6.20176C36.5658 5.95532 36.7634 5.72572 36.9973 5.51311L36.5921 5.0674C36.3231 5.31192 36.0921 5.57944 35.9004 5.87011L36.4033 6.20176ZM36.9948 5.51536C37.2205 5.31471 37.4952 5.15309 37.8236 5.0332L37.6171 4.46737C37.2255 4.61032 36.8831 4.80869 36.5946 5.06515L36.9948 5.51536ZM37.8261 5.03228C38.1509 4.9105 38.5394 4.84575 38.9974 4.84575V4.2434C38.4841 4.2434 38.0212 4.31579 37.6146 4.46828L37.8261 5.03228ZM38.4574 5.88904C37.8654 5.88904 37.3559 6.0078 36.9543 6.27324L37.2864 6.77573C37.5591 6.59548 37.941 6.49139 38.4574 6.49139V5.88904ZM36.9553 6.27256C36.5592 6.53211 36.2798 6.9195 36.1076 7.4105L36.676 7.60981C36.8124 7.22085 37.0187 6.95113 37.2854 6.77641L36.9553 6.27256ZM36.1065 7.4138C35.9447 7.89279 35.8625 8.47743 35.8507 9.15917L36.453 9.16956C36.4641 8.52565 36.5418 8.00749 36.6772 7.60651L36.1065 7.4138ZM35.8507 9.16437V9.44721H36.453V9.16437H35.8507ZM35.8507 9.44721C35.8507 10.1687 35.9238 10.7959 36.0769 11.3226L36.6553 11.1545C36.5228 10.6984 36.453 10.1314 36.453 9.44721H35.8507ZM36.0781 11.3267C36.2414 11.8604 36.5155 12.2899 36.912 12.5923L37.2773 12.1133C36.9995 11.9015 36.788 11.5881 36.6541 11.1505L36.0781 11.3267ZM36.9165 12.5957C37.3271 12.8967 37.8596 13.0311 38.4832 13.0311V12.4287C37.9411 12.4287 37.5479 12.3117 37.2728 12.1099L36.9165 12.5957ZM38.4832 13.0311C39.0323 13.0311 39.5104 12.8796 39.8939 12.5578L39.5066 12.0964C39.2501 12.3116 38.9169 12.4287 38.4832 12.4287V13.0311ZM39.8919 12.5595C40.2715 12.2464 40.542 11.8098 40.7155 11.2708L40.1421 11.0863C39.9956 11.5416 39.7804 11.8706 39.5086 12.0947L39.8919 12.5595ZM40.7155 11.2708C40.8874 10.7367 40.97 10.1185 40.97 9.4215H40.3676C40.3676 10.073 40.2902 10.6262 40.1421 11.0863L40.7155 11.2708ZM40.97 9.4215C40.97 8.36867 40.7827 7.50877 40.3732 6.87524L39.8673 7.20226C40.1891 7.7001 40.3676 8.4287 40.3676 9.4215H40.97ZM40.3743 6.87705C39.9518 6.21315 39.2948 5.88904 38.4574 5.88904V6.49139C39.1172 6.49139 39.5687 6.73297 39.8661 7.20044L40.3743 6.87705ZM52.9082 9.92719V10.2284H53.2094V9.92719H52.9082ZM46.5742 9.92719V9.62601H46.2655L46.2731 9.93467L46.5742 9.92719ZM47.3113 12.0528L47.0922 12.2594L47.0934 12.2607L47.3113 12.0528ZM50.9283 12.6271L50.9981 12.9201L51.0005 12.9195L50.9283 12.6271ZM52.4282 12.1042H52.7294V11.6408L52.3059 11.829L52.4282 12.1042ZM52.4282 13.7413L52.5563 14.0139L52.7294 13.9326V13.7413H52.4282ZM46.7542 13.8442L46.6152 14.1113L46.6178 14.1127L46.7542 13.8442ZM45.1 12.2157L44.8358 12.3603L44.8367 12.3619L45.1 12.2157ZM47.3028 6.67877L47.0853 6.47037L47.0838 6.47197L47.3028 6.67877ZM46.6171 8.48725L46.317 8.46135L46.2888 8.78843H46.6171V8.48725ZM50.9369 8.48725V8.78843H51.2417L51.238 8.48363L50.9369 8.48725ZM50.6969 7.22731L50.4178 7.34068L50.4194 7.34438L50.6969 7.22731ZM50.0112 6.37021L49.842 6.61936L49.8441 6.6208L50.0112 6.37021ZM48.8455 4.84575C49.6496 4.84575 50.3211 5.01121 50.8724 5.32845L51.1728 4.80637C50.5127 4.4265 49.7329 4.2434 48.8455 4.2434V4.84575ZM50.8724 5.32845C51.426 5.64703 51.8513 6.09738 52.1513 6.6868L52.6881 6.41359C52.3367 5.72308 51.8306 5.1849 51.1728 4.80637L50.8724 5.32845ZM52.1513 6.6868C52.4508 7.27547 52.607 7.9921 52.607 8.84724H53.2094C53.2094 7.9196 53.0399 7.10487 52.6881 6.41359L52.1513 6.6868ZM52.607 8.84724V9.92719H53.2094V8.84724H52.607ZM52.9082 9.62601H46.5742V10.2284H52.9082V9.62601ZM46.2731 9.93467C46.2972 10.9027 46.5573 11.6919 47.0922 12.2594L47.5305 11.8462C47.1283 11.4195 46.897 10.7916 46.8753 9.91971L46.2731 9.93467ZM47.0934 12.2607C47.6376 12.8311 48.3871 13.0997 49.2998 13.0997V12.4973C48.5097 12.4973 47.9336 12.2688 47.5292 11.8449L47.0934 12.2607ZM49.2998 13.0997C49.9239 13.0997 50.4908 13.0408 50.9981 12.9201L50.8586 12.3341C50.4059 12.4419 49.8871 12.4973 49.2998 12.4973V13.0997ZM51.0005 12.9195C51.5054 12.7947 52.0221 12.6143 52.5506 12.3795L52.3059 11.829C51.8059 12.0513 51.3226 12.2194 50.8561 12.3347L51.0005 12.9195ZM52.1271 12.1042V13.7413H52.7294V12.1042H52.1271ZM52.3002 13.4687C51.8462 13.682 51.3855 13.8372 50.918 13.9351L51.0414 14.5246C51.5567 14.4168 52.0618 14.2463 52.5563 14.0139L52.3002 13.4687ZM50.918 13.9351C50.4528 14.0324 49.886 14.0829 49.2141 14.0829V14.6853C49.9136 14.6853 50.5239 14.633 51.0414 14.5246L50.918 13.9351ZM49.2141 14.0829C48.322 14.0829 47.5502 13.9107 46.8906 13.5756L46.6178 14.1127C47.3753 14.4975 48.2434 14.6853 49.2141 14.6853V14.0829ZM46.8932 13.577C46.2449 13.2396 45.7358 12.7399 45.3633 12.0694L44.8367 12.3619C45.2642 13.1313 45.8578 13.7173 46.6152 14.1113L46.8932 13.577ZM45.3642 12.071C45.0004 11.4068 44.8098 10.5657 44.8098 9.53292H44.2074C44.2074 10.6372 44.4111 11.5846 44.8358 12.3603L45.3642 12.071ZM44.8098 9.53292C44.8098 8.50298 44.9843 7.64768 45.3196 6.95582L44.7775 6.69313C44.3929 7.48692 44.2074 8.43724 44.2074 9.53292H44.8098ZM45.3196 6.95582C45.6563 6.26105 46.1235 5.74183 46.7199 5.38607L46.4114 4.86875C45.705 5.29009 45.1608 5.90225 44.7775 6.69313L45.3196 6.95582ZM46.7199 5.38607C47.3182 5.02918 48.0233 4.84575 48.8455 4.84575V4.2434C47.9307 4.2434 47.1159 4.44852 46.4114 4.86875L46.7199 5.38607ZM48.8455 5.76047C48.1394 5.76047 47.5431 5.99269 47.0853 6.47038L47.5202 6.88715C47.851 6.54202 48.2832 6.36283 48.8455 6.36283V5.76047ZM47.0838 6.47197C46.6328 6.9495 46.3891 7.62651 46.317 8.46135L46.9171 8.51316C46.9822 7.7595 47.1956 7.23085 47.5217 6.88556L47.0838 6.47197ZM46.6171 8.78843H50.9369V8.18608H46.6171V8.78843ZM51.238 8.48363C51.2319 7.97781 51.1465 7.51814 50.9744 7.11024L50.4194 7.34438C50.5559 7.66788 50.6304 8.04817 50.6357 8.49088L51.238 8.48363ZM50.9759 7.11396C50.8062 6.69612 50.5404 6.36101 50.1783 6.11961L49.8441 6.6208C50.0992 6.79082 50.2905 7.02711 50.4179 7.34067L50.9759 7.11396ZM50.1804 6.12107C49.8148 5.87272 49.3625 5.76047 48.8455 5.76047V6.36283C49.2771 6.36283 49.6019 6.45629 49.842 6.61935L50.1804 6.12107ZM60.9993 4.63886L61.299 4.66883L61.3259 4.39926L61.0607 4.34401L60.9993 4.63886ZM60.8107 6.52449L60.728 6.81408L61.0745 6.91309L61.1104 6.55445L60.8107 6.52449ZM60.365 6.44735L60.3351 6.74703L60.336 6.74712L60.365 6.44735ZM58.8737 6.60163L58.9734 6.88585L58.9778 6.88423L58.8737 6.60163ZM58.008 7.13303L58.2133 7.35339L58.2159 7.35089L58.008 7.13303ZM57.2023 14.2127V14.5139H57.5035V14.2127H57.2023ZM55.1795 14.2127H54.8784V14.5139H55.1795V14.2127ZM55.1795 4.72457V4.42339H54.8784V4.72457H55.1795ZM56.7566 4.72457L57.0538 4.6758L57.0124 4.42339H56.7566V4.72457ZM57.0309 6.39592L56.7337 6.44469L56.7751 6.6971H57.0309V6.39592ZM57.1252 6.39592V6.6971H57.3018L57.388 6.54294L57.1252 6.39592ZM58.7879 4.80171L58.9139 5.0753L58.9158 5.07441L58.7879 4.80171ZM59.9879 4.84575C60.1373 4.84575 60.3024 4.85377 60.4835 4.87023L60.538 4.27035C60.342 4.25253 60.1585 4.2434 59.9879 4.2434V4.84575ZM60.4835 4.87023C60.6642 4.88667 60.8151 4.90814 60.9379 4.93371L61.0607 4.34401C60.9092 4.31244 60.7343 4.2882 60.538 4.27035L60.4835 4.87023ZM60.6996 4.60889L60.511 6.49452L61.1104 6.55445L61.299 4.66883L60.6996 4.60889ZM60.8935 6.2349C60.7502 6.19398 60.5824 6.16579 60.394 6.14757L60.336 6.74712C60.502 6.76318 60.6312 6.78643 60.728 6.81408L60.8935 6.2349ZM60.395 6.14766C60.216 6.12977 60.0515 6.12046 59.9022 6.12046V6.72281C60.0272 6.72281 60.1712 6.73065 60.3351 6.74703L60.395 6.14766ZM59.9022 6.12046C59.508 6.12046 59.1298 6.18629 58.7695 6.31902L58.9778 6.88423C59.2689 6.77698 59.5764 6.72281 59.9022 6.72281V6.12046ZM58.7739 6.31743C58.4076 6.44599 58.0822 6.64584 57.8 6.91517L58.2159 7.35089C58.4366 7.14024 58.6884 6.98583 58.9734 6.88582L58.7739 6.31743ZM57.8027 6.91269C57.5156 7.18022 57.2947 7.51266 57.1373 7.90322L57.6959 8.12848C57.8241 7.8105 57.9976 7.55439 58.2133 7.35337L57.8027 6.91269ZM57.1373 7.90322C56.9771 8.30039 56.9011 8.75142 56.9011 9.25008H57.5035C57.5035 8.81164 57.5704 8.43984 57.6959 8.12848L57.1373 7.90322ZM56.9011 9.25008V14.2127H57.5035V9.25008H56.9011ZM57.2023 13.9115H55.1795V14.5139H57.2023V13.9115ZM55.4807 14.2127V4.72457H54.8784V14.2127H55.4807ZM55.1795 5.02575H56.7566V4.42339H55.1795V5.02575ZM56.4594 4.77334L56.7337 6.44469L57.3281 6.34715L57.0538 4.6758L56.4594 4.77334ZM57.0309 6.6971H57.1252V6.09474H57.0309V6.6971ZM57.388 6.54294C57.5627 6.23059 57.7801 5.94411 58.041 5.68321L57.615 5.25728C57.316 5.55636 57.0647 5.887 56.8623 6.2489L57.388 6.54294ZM58.041 5.68321C58.2957 5.42844 58.5862 5.22611 58.9139 5.07529L58.662 4.52812C58.2697 4.70872 57.9202 4.95208 57.615 5.25728L58.041 5.68321ZM58.9158 5.07441C59.2385 4.92313 59.5944 4.84575 59.9879 4.84575V4.2434C59.5128 4.2434 59.0688 4.33745 58.6601 4.529L58.9158 5.07441Z" />
<path d="M64.6939 13.7576C65.5253 13.7576 66.1992 13.0837 66.1992 12.2524C66.1992 11.4211 65.5253 10.7472 64.6939 10.7472C63.8626 10.7472 63.1887 11.4211 63.1887 12.2524C63.1887 13.0837 63.8626 13.7576 64.6939 13.7576Z"  stroke="#6A6A6A" stroke-width="0.602357" stroke-miterlimit="10"/>
</svg>
