<svg  viewBox="0 0 91 20"  xmlns="http://www.w3.org/2000/svg">
<path d="M17.0083 19.0584H0.0218629C0.0182478 16.9408 0.809388 14.8989 2.23887 13.3364C2.31476 12.3542 2.47537 11.3804 2.7189 10.4258C2.915 9.64571 3.16676 8.88064 3.47223 8.1365L3.52338 8.01697L3.63657 8.07447C4.2241 8.37095 4.76913 8.745 5.25704 9.1866C5.77445 9.65446 6.22437 10.1919 6.5939 10.7835C7.22404 10.6391 7.86842 10.5659 8.51491 10.5653C9.19409 10.565 9.87086 10.6463 10.5306 10.8074L10.7894 10.4652C11.1228 10.074 11.4809 9.70457 11.8615 9.35909C12.3436 8.92619 12.8613 8.53453 13.409 8.18825L13.5316 8.11381L13.5842 8.24393C14.0501 9.37703 14.3884 10.5585 14.5927 11.7664L14.6021 11.8251C14.6687 12.2294 14.7552 12.7406 14.8018 13.3479C16.2248 14.9091 17.0119 16.9462 17.0083 19.0584ZM12.9199 15.045C12.9968 14.8389 13.0308 14.6191 13.0196 14.3993C13.0084 14.1795 12.9523 13.9644 12.8548 13.7671C12.657 13.3586 12.308 13.0431 11.8817 12.8873C11.6818 12.8121 11.4698 12.7738 11.2561 12.7742C10.5697 12.7742 9.92835 13.1785 9.68228 13.8367C9.49009 14.3511 9.49312 15.1936 9.7985 15.6351C9.97193 15.88 10.2828 15.9983 10.7498 15.9983C11.6278 15.9992 12.5915 15.9263 12.9199 15.045ZM9.06212 16.6032C9.18773 16.4283 9.03186 16.2098 8.77883 16.2098H8.39596C8.14354 16.2098 7.98555 16.4283 8.11267 16.6032L8.20861 16.7367L8.30304 16.8698C8.43016 17.0448 8.74463 17.0448 8.87023 16.8698L8.96618 16.7367L9.06212 16.6032ZM7.2295 15.6348C7.5364 15.1933 7.53791 14.3493 7.34572 13.8364C7.26912 13.6304 7.15109 13.4424 6.99892 13.2839C6.84675 13.1254 6.66368 12.9998 6.46103 12.9149C6.04289 12.7385 5.57318 12.7285 5.14789 12.8868C4.7226 13.0452 4.37385 13.3599 4.17289 13.7668C4.0757 13.9642 4.0198 14.1794 4.00861 14.3992C3.99742 14.619 4.03118 14.8387 4.10782 15.045C4.43621 15.9263 5.39989 15.9992 6.27822 15.9992C6.74614 15.9992 7.05607 15.88 7.2295 15.6351V15.6348Z" />
<path d="M12.8554 13.7673C12.9529 13.9646 13.009 14.1798 13.0202 14.3996C13.0314 14.6194 12.9974 14.8391 12.9205 15.0453C12.5921 15.9265 11.6284 15.9995 10.7501 15.9995C10.2837 15.9995 9.97222 15.8802 9.7988 15.6363C9.49341 15.1948 9.49038 14.3508 9.68258 13.8378C9.92894 13.1796 10.5703 12.7753 11.2564 12.7753C11.4701 12.7749 11.6821 12.8133 11.882 12.8885C12.3083 13.044 12.6573 13.3592 12.8554 13.7673ZM12.7646 14.9881C12.8326 14.8027 12.8625 14.6054 12.8524 14.4082C12.8423 14.2109 12.7925 14.0178 12.7059 13.8403C12.5258 13.4705 12.2096 13.1848 11.8236 13.0429C11.5694 12.9486 11.2957 12.9194 11.0273 12.9578C10.4973 13.0353 10.0312 13.376 9.83754 13.8959C9.66714 14.3605 9.66411 15.1491 9.93651 15.5425C10.076 15.7407 10.3409 15.8366 10.7501 15.8366C10.8584 15.8366 10.9653 15.8366 11.0721 15.8321C11.8157 15.8073 12.5101 15.6711 12.7646 14.9881Z" fill="#020202"/>
<path d="M12.7061 13.8402C12.7926 14.0178 12.8423 14.211 12.8522 14.4082C12.8621 14.6055 12.8321 14.8027 12.764 14.988C12.5085 15.6711 11.8142 15.8072 11.0706 15.8305L11.0675 15.383C11.5076 15.383 11.8653 14.9384 11.8653 14.387C11.8653 13.8357 11.5076 13.3884 11.0675 13.3884C11.0619 13.3876 11.0562 13.3876 11.0506 13.3884L11.0258 12.9547C11.2947 12.9171 11.5688 12.9474 11.823 13.0428C12.2093 13.1845 12.5258 13.4703 12.7061 13.8402Z" />
<path d="M12.073 1V3.00759H9.92737V9.07665H7.3959V3.00759H5.27332V1H12.073Z" />
<path d="M11.0692 13.3892C11.5093 13.3892 11.867 13.8367 11.867 14.3878C11.867 14.9389 11.5087 15.3828 11.0692 15.3828C10.6297 15.3828 10.2714 14.9383 10.2714 14.3869C10.2714 13.8446 10.6185 13.4016 11.0522 13.3907C11.0578 13.3894 11.0635 13.3889 11.0692 13.3892Z" fill="#020202"/>
<path d="M11.0699 15.3828L11.0729 15.8303C10.9661 15.8334 10.8593 15.8349 10.7509 15.8349C10.3417 15.8349 10.0769 15.739 9.93735 15.5407C9.66495 15.1473 9.66798 14.3587 9.83838 13.8942C10.0321 13.3752 10.4982 13.0344 11.0281 12.9561L11.053 13.3897C10.6193 13.4006 10.2721 13.8436 10.2721 14.3859C10.2715 14.9382 10.6277 15.3828 11.0699 15.3828Z" />
<path d="M8.77938 16.21C9.0318 16.21 9.18828 16.4285 9.06267 16.6034L8.96673 16.7369L8.87078 16.87C8.74518 17.045 8.43071 17.045 8.30359 16.87L8.20916 16.7369L8.11322 16.6034C7.9861 16.4285 8.14348 16.21 8.39651 16.21H8.77938Z" fill="#020202"/>
<path d="M7.34683 13.8367C7.53902 14.3512 7.53751 15.1937 7.23061 15.6352C7.05718 15.88 6.74635 15.9984 6.27934 15.9984C5.40161 15.9984 4.43733 15.9254 4.10893 15.0442C4.03233 14.8379 3.9986 14.6182 4.00978 14.3985C4.02097 14.1788 4.07685 13.9636 4.17401 13.7662C4.37496 13.3594 4.72372 13.0446 5.14901 12.8863C5.5743 12.728 6.04401 12.738 6.46214 12.9144C6.66488 12.9994 6.84801 13.1251 7.00018 13.2838C7.15235 13.4425 7.27034 13.6307 7.34683 13.8367ZM7.09441 15.5408C7.36529 15.1474 7.36378 14.3588 7.19187 13.8942C7.12192 13.7093 7.01514 13.5404 6.878 13.398C6.74086 13.2555 6.57622 13.1423 6.39404 13.0654C6.1987 12.9818 5.98847 12.9387 5.77601 12.9386C5.58101 12.9385 5.38761 12.9738 5.20518 13.0427C4.81911 13.1846 4.5031 13.4707 4.32352 13.8407C4.23629 14.018 4.18595 14.2111 4.17554 14.4084C4.16514 14.6057 4.19489 14.803 4.26299 14.9885C4.55567 15.769 5.41856 15.8359 6.27843 15.8359C6.68945 15.8349 6.95337 15.739 7.0938 15.5408H7.09441Z" fill="#020202"/>
<path d="M7.19139 13.8945C7.36331 14.359 7.36482 15.1476 7.09394 15.541C6.95441 15.7392 6.68958 15.8352 6.27886 15.8352C5.41899 15.8352 4.5561 15.7686 4.26343 14.9878C4.19532 14.8024 4.16557 14.605 4.17598 14.4077C4.18638 14.2104 4.23672 14.0173 4.32396 13.84C4.50365 13.4704 4.81952 13.1847 5.20531 13.0429C5.38759 12.9743 5.58077 12.9392 5.77553 12.9394C5.98799 12.9395 6.19823 12.9826 6.39357 13.0662C6.57568 13.1431 6.74029 13.2562 6.87743 13.3985C7.01456 13.5409 7.12137 13.7096 7.19139 13.8945ZM6.90174 14.4392C6.90174 13.889 6.54218 13.4405 6.10241 13.4405C5.66264 13.4405 5.3061 13.8881 5.3061 14.4392C5.3061 14.9903 5.66234 15.4351 6.10241 15.4351C6.54248 15.4351 6.90174 14.9881 6.90174 14.4398V14.4392Z" />
<path d="M6.10185 13.442C6.54162 13.442 6.90118 13.8896 6.90118 14.4407C6.90118 14.9917 6.54162 15.4366 6.10185 15.4366C5.66208 15.4366 5.30554 14.989 5.30554 14.4407C5.30554 13.8923 5.66178 13.442 6.10185 13.442Z" fill="#020202"/>
<path d="M29.7028 3.4343V18.631H27.4765V3.4343H22.6368V1.30483H34.5425V3.4343H29.7028ZM44.4639 12.049H36.7203V10.2099H44.4639V12.049ZM56.9174 19.0182C54.3524 19.0182 52.2068 18.1551 50.4806 16.4289C48.7706 14.7028 47.9156 12.5491 47.9156 9.9679C47.9156 7.38673 48.7706 5.24112 50.4806 3.53109C52.1906 1.7888 54.3363 0.917649 56.9174 0.917649C59.5309 0.917649 61.6523 1.86139 63.2816 3.74888L61.6845 5.29759C60.4424 3.79728 58.8533 3.04712 56.9174 3.04712C54.9977 3.04712 53.3925 3.69242 52.1019 4.983C50.8275 6.25746 50.1902 7.91909 50.1902 9.9679C50.1902 12.0167 50.8275 13.6783 52.1019 14.9528C53.3925 16.2434 54.9977 16.8887 56.9174 16.8887C58.934 16.8887 60.6843 16.0417 62.1685 14.3478L63.7898 15.9207C62.9671 16.9048 61.9588 17.6711 60.765 18.2196C59.5712 18.752 58.2887 19.0182 56.9174 19.0182ZM68.363 15.0012C68.363 15.582 68.6049 16.0659 69.0889 16.4531C69.589 16.8403 70.1698 17.0339 70.8312 17.0339C71.7669 17.0339 72.5977 16.687 73.3237 15.9933C74.0658 15.2996 74.4368 14.485 74.4368 13.5493C73.7431 13.0008 72.7752 12.7265 71.533 12.7265C70.6296 12.7265 69.8713 12.9443 69.2583 13.3799C68.6614 13.8155 68.363 14.3559 68.363 15.0012ZM71.2426 6.38652C72.8881 6.38652 74.1867 6.83016 75.1386 7.71744C76.0904 8.58859 76.5663 9.79045 76.5663 11.323V18.631H74.4368V16.9855H74.34C73.4205 18.3406 72.1944 19.0182 70.6618 19.0182C69.3551 19.0182 68.2581 18.631 67.3708 17.8566C66.4997 17.0823 66.0641 16.1143 66.0641 14.9528C66.0641 13.7267 66.5239 12.7507 67.4434 12.0248C68.3791 11.2988 69.6213 10.9358 71.17 10.9358C72.4928 10.9358 73.5818 11.1778 74.4368 11.6618V11.1536C74.4368 10.3793 74.1303 9.72592 73.5173 9.19355C72.9042 8.64505 72.1863 8.3708 71.3636 8.3708C70.1214 8.3708 69.1373 8.8951 68.4114 9.94371L66.4513 8.70958C67.5321 7.16087 69.1293 6.38652 71.2426 6.38652ZM84.7454 18.8246C83.7774 18.8246 82.9708 18.5261 82.3255 17.9292C81.6964 17.3323 81.3737 16.5015 81.3576 15.4368V8.80637H79.2765V6.7737H81.3576V3.14391H83.5838V6.7737H86.4877V8.80637H83.5838V14.7108C83.5838 15.5013 83.7371 16.0417 84.0436 16.3321C84.3501 16.6064 84.697 16.7435 85.0842 16.7435C85.2616 16.7435 85.431 16.7274 85.5923 16.6951C85.7698 16.6467 85.9311 16.5902 86.0763 16.5257L86.7781 18.51C86.1973 18.7197 85.5197 18.8246 84.7454 18.8246Z" />
</svg>
