 <svg
                    width="25"
                    height="25"
                    viewBox="0 0 25 25"
                    fill="none"
                    xmlns="http://www.w3.org/2000/svg"
                  >
                    <circle
                      cx="12.8823"
                      cy="12.8824"
                      r="11.6471"
                      fill="#020202"
                      stroke="white"
                      stroke-width="0.705882"
                    />
                    <path
                      d="M16.8985 12.353H7.05883C6.91842 12.353 6.78376 12.4088 6.68448 12.5081C6.5852 12.6074 6.52942 12.742 6.52942 12.8824C6.52942 13.0228 6.5852 13.1575 6.68448 13.2568C6.78376 13.3561 6.91842 13.4118 7.05883 13.4118H16.8985L13.0369 17.2723C12.9375 17.3717 12.8817 17.5065 12.8817 17.6471C12.8817 17.7877 12.9375 17.9225 13.0369 18.0219C13.1364 18.1214 13.2712 18.1772 13.4118 18.1772C13.5524 18.1772 13.6872 18.1214 13.7866 18.0219L18.5513 13.2572C18.6006 13.2081 18.6397 13.1496 18.6664 13.0853C18.6931 13.021 18.7068 12.9521 18.7068 12.8824C18.7068 12.8128 18.6931 12.7438 18.6664 12.6795C18.6397 12.6152 18.6006 12.5568 18.5513 12.5076L13.7866 7.74289C13.6872 7.64348 13.5524 7.58763 13.4118 7.58763C13.2712 7.58763 13.1364 7.64348 13.0369 7.74289C12.9375 7.8423 12.8817 7.97713 12.8817 8.11771C12.8817 8.2583 12.9375 8.39313 13.0369 8.49254L16.8985 12.353Z"
                      fill="white"
                    />
                  </svg>