<svg xmlns="http://www.w3.org/2000/svg" width="52" height="52" viewBox="0 0 52 52" fill="none">
<path d="M39 39C39.862 39 40.6886 38.6576 41.2981 38.0481C41.9076 37.4386 42.25 36.612 42.25 35.75V27.8135C42.25 26.9515 41.9076 26.1249 41.2981 25.5154C40.6886 24.9059 39.862 24.5635 39 24.5635H34.489C34.489 23.4228 34.5573 22.2788 34.6905 21.138C34.892 19.929 35.23 18.8533 35.698 17.914C36.1693 16.9715 36.7738 16.2337 37.5148 15.6943C38.2525 15.0897 39.1918 14.7875 40.3358 14.7875V9.75C38.454 9.75 36.8095 10.153 35.3958 10.959C33.9943 11.7568 32.7894 12.8585 31.8695 14.183C30.9463 15.6433 30.2658 17.2435 29.8545 18.9215C29.4401 20.7732 29.2373 22.666 29.25 24.5635V35.75C29.25 36.612 29.5924 37.4386 30.2019 38.0481C30.8114 38.6576 31.6381 39 32.5 39H39ZM19.5 39C20.362 39 21.1886 38.6576 21.7981 38.0481C22.4076 37.4386 22.75 36.612 22.75 35.75V27.8135C22.75 26.9515 22.4076 26.1249 21.7981 25.5154C21.1886 24.9059 20.362 24.5635 19.5 24.5635H14.989C14.989 23.4228 15.0573 22.2788 15.1905 21.138C15.392 19.929 15.73 18.8533 16.198 17.914C16.6693 16.9715 17.2738 16.2337 18.0148 15.6943C18.7525 15.0897 19.6918 14.7875 20.8358 14.7875V9.75C18.954 9.75 17.3095 10.153 15.8958 10.959C14.4943 11.7568 13.2894 12.8585 12.3695 14.183C11.4463 15.6433 10.7658 17.2435 10.3545 18.9215C9.94009 20.7732 9.73729 22.666 9.75001 24.5635V35.75C9.75001 36.612 10.0924 37.4386 10.7019 38.0481C11.3114 38.6576 12.1381 39 13 39H19.5Z" fill="white"/>
</svg>